<svg width="512" height="512" viewBox="0 0 512 512" fill="none" xmlns="http://www.w3.org/2000/svg">
<path fill-rule="evenodd" clip-rule="evenodd" d="M58.5213 58.5213C39 78.0427 39 109.462 39 172.3V194C39 208.614 39 215.92 43.5398 220.46C48.0797 225 55.3865 225 70 225H339.7C402.538 225 433.957 225 453.479 205.479C473 185.957 473 154.538 473 91.7V70C473 55.3865 473 48.0797 468.46 43.5398C463.92 39 456.614 39 442 39H172.3C109.462 39 78.0427 39 58.5213 58.5213ZM151.379 203.949C160.25 207.65 169.666 209.5 179.626 209.5C189.587 209.5 198.924 207.65 207.64 203.949C216.355 200.248 223.436 194.769 228.883 187.51C234.486 180.251 237.287 171.355 237.287 160.822V102.324C237.287 100.616 237.676 99.1924 238.454 98.0537C239.388 96.7727 240.633 95.7764 242.189 95.0647C243.746 94.3531 245.38 93.9973 247.092 93.9973C248.804 93.9973 250.36 94.3531 251.761 95.0647C253.161 95.7764 254.329 96.7727 255.262 98.0537C256.196 99.1924 256.663 100.616 256.663 102.324V206.725H304.519V103.391C304.519 93.0009 301.796 84.1763 296.349 76.9174C290.901 69.6584 283.82 64.1074 275.105 60.2645C266.39 56.4215 257.052 54.5 247.092 54.5C237.131 54.5 227.716 56.4215 218.845 60.2645C210.13 64.1074 203.049 69.6584 197.602 76.9174C192.154 84.1763 189.431 93.0009 189.431 103.391V161.249C189.431 163.1 188.964 164.736 188.03 166.16C187.097 167.441 185.851 168.437 184.295 169.149C182.739 169.86 181.105 170.216 179.393 170.216C177.837 170.216 176.358 169.86 174.957 169.149C173.557 168.437 172.389 167.441 171.456 166.16C170.522 164.736 170.055 163.1 170.055 161.249V103.391C170.055 93.0009 167.332 84.1763 161.884 76.9174C156.437 69.6584 149.356 64.1074 140.641 60.2645C131.926 56.4215 122.51 54.5 112.394 54.5C102.278 54.5 92.7849 56.4215 83.914 60.2645C75.0431 64.1074 67.8842 69.6584 62.4371 76.9174C57.1457 84.1763 54.5 93.0009 54.5 103.391V206.725H102.59V102.964C102.59 101.114 102.979 99.5482 103.757 98.2672C104.691 96.8439 105.858 95.7764 107.258 95.0647C108.815 94.3531 110.527 93.9973 112.394 93.9973C114.262 93.9973 115.896 94.3531 117.297 95.0647C118.697 95.7764 119.787 96.8439 120.565 98.2672C121.499 99.5482 121.965 101.114 121.965 102.964V160.822C121.965 171.355 124.689 180.251 130.136 187.51C135.583 194.769 142.664 200.248 151.379 203.949ZM327.238 170.643V206.725H404.975C414.624 206.725 423.417 204.803 431.354 200.96C439.291 197.117 445.594 191.495 450.263 184.094C455.088 176.692 457.5 167.797 457.5 157.406C457.5 148.297 455.243 140.398 450.73 133.708C446.217 127.018 439.836 121.823 431.588 118.123C423.339 114.28 413.69 112.358 402.641 112.358H379.996C377.818 112.358 375.872 111.931 374.16 111.077C372.604 110.081 371.359 108.871 370.425 107.448C369.647 106.024 369.258 104.459 369.258 102.751C369.258 101.043 369.647 99.477 370.425 98.0537C371.359 96.6304 372.604 95.4917 374.16 94.6377C375.872 93.7838 377.818 93.3568 379.996 93.3568H447.695V57.2755H373.227C363.578 57.2755 354.784 59.197 346.847 63.0399C338.91 66.8829 332.607 72.2916 327.938 79.2658C323.269 86.2401 320.935 94.4242 320.935 103.818C320.935 113.354 323.347 121.539 328.172 128.371C333.152 135.06 339.766 140.184 348.015 143.742C356.263 147.301 365.445 149.08 375.561 149.08H396.571C399.217 149.08 401.396 149.578 403.107 150.574C404.975 151.571 406.376 152.923 407.309 154.631C408.399 156.197 408.944 157.976 408.944 159.968C408.944 161.819 408.399 163.598 407.309 165.306C406.376 166.871 404.975 168.152 403.107 169.149C401.396 170.145 399.217 170.643 396.571 170.643H327.238Z" fill="#66D9ED"/>
<path d="M60.2965 240.097L68.7175 274.947L78.2979 240.097H99.5944V332.859H83.8509V305.4L84.5831 262.013L72.928 302.278H64.446L54.0113 263.734L54.7436 305.4V332.859H39V240.097H60.2965Z" fill="white"/>
<path d="M140.699 334.134C135.613 334.134 130.996 333.263 126.847 331.522C122.697 329.78 119.138 327.402 116.168 324.386C113.198 321.413 110.9 317.909 109.272 313.874C107.686 309.796 106.893 305.443 106.893 300.813V298.265C106.893 292.998 107.686 288.198 109.272 283.866C110.859 279.491 113.076 275.732 115.924 272.589C118.771 269.446 122.148 267.004 126.053 265.263C129.959 263.521 134.21 262.65 138.807 262.65C143.567 262.65 147.797 263.479 151.499 265.135C155.242 266.749 158.415 269.043 161.019 272.016C163.582 274.989 165.534 278.578 166.877 282.783C168.219 286.945 168.891 291.554 168.891 296.608V304.126H124.101V304.317C124.67 307.078 125.402 309.308 126.297 311.007C127.192 312.663 128.393 314.171 129.898 315.53C131.444 316.932 133.213 318.015 135.207 318.779C137.2 319.544 139.376 319.926 141.736 319.926C145.072 319.926 148.306 319.268 151.438 317.951C154.571 316.635 157.113 314.659 159.066 312.026L167.548 321.583C165.392 324.768 161.975 327.656 157.296 330.247C152.618 332.838 147.085 334.134 140.699 334.134ZM138.685 276.985C136.773 276.985 135.024 277.346 133.437 278.068C131.85 278.748 130.467 279.746 129.288 281.063C128.067 282.38 127.05 283.951 126.236 285.777C125.423 287.604 124.813 289.642 124.406 291.894H152.232V290.492C152.232 288.623 151.906 286.86 151.255 285.204C150.604 283.548 149.709 282.103 148.57 280.872C147.431 279.682 146.028 278.748 144.36 278.068C142.733 277.346 140.841 276.985 138.685 276.985Z" fill="white"/>
<path d="M209.506 334.134C204.421 334.134 199.804 333.263 195.655 331.522C191.505 329.78 187.946 327.402 184.976 324.386C182.006 321.413 179.708 317.909 178.08 313.874C176.494 309.796 175.701 305.443 175.701 300.813V298.265C175.701 292.998 176.494 288.198 178.08 283.866C179.667 279.491 181.884 275.732 184.732 272.589C187.579 269.446 190.956 267.004 194.861 265.263C198.767 263.521 203.018 262.65 207.615 262.65C212.374 262.65 216.605 263.479 220.307 265.135C224.05 266.749 227.223 269.043 229.827 272.016C232.39 274.989 234.342 278.578 235.685 282.783C237.027 286.945 237.698 291.554 237.698 296.608V304.126H192.909V304.317C193.478 307.078 194.21 309.308 195.105 311.007C196 312.663 197.2 314.171 198.706 315.53C200.252 316.932 202.021 318.015 204.015 318.779C206.008 319.544 208.184 319.926 210.544 319.926C213.88 319.926 217.114 319.268 220.246 317.951C223.379 316.635 225.921 314.659 227.874 312.026L236.356 321.583C234.2 324.768 230.783 327.656 226.104 330.247C221.426 332.838 215.893 334.134 209.506 334.134ZM207.493 276.985C205.581 276.985 203.831 277.346 202.245 278.068C200.658 278.748 199.275 279.746 198.095 281.063C196.875 282.38 195.858 283.951 195.044 285.777C194.231 287.604 193.621 289.642 193.214 291.894H221.04V290.492C221.04 288.623 220.714 286.86 220.063 285.204C219.412 283.548 218.517 282.103 217.378 280.872C216.239 279.682 214.836 278.748 213.168 278.068C211.541 277.346 209.649 276.985 207.493 276.985Z" fill="white"/>
<path d="M277.399 247.041V263.925H302.052V276.985H277.399V306.611C277.399 309.117 277.664 311.219 278.192 312.918C278.762 314.575 279.555 315.891 280.572 316.868C281.589 317.887 282.81 318.61 284.234 319.034C285.698 319.459 287.325 319.671 289.115 319.671C290.417 319.671 291.739 319.608 293.082 319.48C294.465 319.353 295.787 319.183 297.048 318.971C298.268 318.801 299.408 318.61 300.465 318.397C301.564 318.185 302.499 317.972 303.272 317.76L304.92 329.929C303.74 330.651 302.357 331.288 300.77 331.84C299.184 332.35 297.496 332.775 295.706 333.114C293.916 333.454 292.044 333.709 290.092 333.879C288.18 334.091 286.288 334.197 284.417 334.197C280.796 334.197 277.501 333.709 274.531 332.732C271.602 331.713 269.1 330.141 267.025 328.017C264.91 325.936 263.283 323.282 262.144 320.054C261.005 316.783 260.435 312.876 260.435 308.331V276.985H245.363V263.925H260.435V247.041H277.399Z" fill="white"/>
<path d="M404.129 308.649C404.129 306.993 403.844 305.443 403.274 303.999C402.746 302.554 401.83 301.195 400.528 299.921C399.186 298.689 397.437 297.564 395.281 296.544C393.165 295.483 390.521 294.506 387.348 293.614C382.425 292.212 378.093 290.513 374.35 288.517C370.648 286.521 367.617 284.333 365.258 281.955C362.898 279.576 361.108 276.943 359.888 274.055C358.708 271.166 358.118 268.023 358.118 264.626C358.118 260.718 358.912 257.171 360.498 253.986C362.085 250.8 364.282 248.082 367.089 245.831C369.896 243.58 373.211 241.86 377.035 240.67C380.859 239.439 385.009 238.823 389.484 238.823C394.121 238.823 398.352 239.524 402.176 240.925C406.041 242.327 409.356 244.281 412.123 246.787C414.889 249.335 417.045 252.351 418.591 255.833C420.137 259.316 420.91 263.139 420.91 267.301H404.19C404.108 265.22 403.742 263.309 403.091 261.567C402.481 259.826 401.566 258.318 400.345 257.044C399.084 255.812 397.518 254.857 395.647 254.177C393.816 253.455 391.66 253.094 389.178 253.094C386.9 253.094 384.866 253.391 383.076 253.986C381.327 254.538 379.842 255.324 378.622 256.343C377.401 257.405 376.466 258.658 375.815 260.102C375.204 261.504 374.899 263.033 374.899 264.689C374.899 266.431 375.306 268.002 376.12 269.404C376.974 270.805 378.195 272.058 379.781 273.163C381.368 274.31 383.28 275.35 385.517 276.285C387.795 277.219 390.358 278.09 393.206 278.897C396.257 279.789 399.166 280.872 401.932 282.146C404.698 283.42 407.241 284.885 409.56 286.542C413.058 289.26 415.845 292.425 417.92 296.035C419.994 299.645 421.032 303.807 421.032 308.522C421.032 312.6 420.238 316.231 418.652 319.417C417.106 322.56 414.95 325.214 412.184 327.38C409.417 329.589 406.122 331.267 402.298 332.413C398.474 333.518 394.304 334.07 389.789 334.07C385.354 334.07 380.961 333.39 376.608 332.031C372.296 330.63 368.533 328.591 365.319 325.915C362.268 323.282 359.847 320.181 358.057 316.613C356.308 313.045 355.433 308.862 355.433 304.062H372.275C372.357 306.866 372.825 309.265 373.679 311.262C374.533 313.258 375.733 314.893 377.279 316.167C378.784 317.442 380.595 318.376 382.71 318.971C384.866 319.565 387.226 319.863 389.789 319.863C392.067 319.863 394.08 319.586 395.83 319.034C397.62 318.482 399.125 317.718 400.345 316.741C401.566 315.764 402.501 314.596 403.152 313.237C403.803 311.835 404.129 310.306 404.129 308.649Z" fill="white"/>
<path d="M444.562 322.602C444.562 319.332 445.599 316.571 447.674 314.32C449.748 312.026 452.637 310.879 456.339 310.879C460 310.879 462.868 312.005 464.943 314.256C467.058 316.507 468.116 319.289 468.116 322.602C468.116 325.915 467.038 328.676 464.882 330.884C462.766 333.051 459.919 334.134 456.339 334.134C452.718 334.134 449.85 333.029 447.735 330.821C445.619 328.612 444.562 325.873 444.562 322.602Z" fill="white"/>
<path d="M108.493 416.807C108.188 421.479 107.142 425.684 105.355 429.422C103.612 433.16 101.258 436.345 98.2944 438.979C95.3308 441.612 91.8006 443.651 87.7038 445.095C83.607 446.496 79.0744 447.197 74.1059 447.197C70.1835 447.197 66.5443 446.709 63.1884 445.732C59.8762 444.713 56.8907 443.268 54.2321 441.4C51.7915 439.658 49.6124 437.556 47.6947 435.092C45.8207 432.629 44.2299 429.91 42.9224 426.937C41.6585 423.964 40.6779 420.694 39.9806 417.126C39.3269 413.558 39 409.778 39 405.785V393.298C39 389.56 39.3051 386.014 39.9152 382.659C40.5254 379.261 41.4406 376.118 42.661 373.229C44.0556 369.704 45.8861 366.561 48.1524 363.8C50.4187 361.039 52.9901 358.703 55.8665 356.792C58.4379 355.178 61.249 353.946 64.2998 353.097C67.3942 352.205 70.7065 351.759 74.2367 351.759C79.4666 351.759 84.1082 352.481 88.1614 353.925C92.2582 355.369 95.7448 357.429 98.6213 360.105C101.498 362.781 103.764 366.051 105.42 369.916C107.076 373.782 108.122 378.135 108.558 382.977H90.2533C90.079 380.216 89.6432 377.795 88.9459 375.714C88.2922 373.633 87.3333 371.891 86.0694 370.49C84.762 369.131 83.1276 368.111 81.1664 367.432C79.2487 366.71 76.9388 366.349 74.2367 366.349C72.7984 366.349 71.4474 366.497 70.1835 366.795C68.9632 367.092 67.83 367.538 66.784 368.133C64.9971 369.152 63.4717 370.617 62.2078 372.529C60.9875 374.397 60.0069 376.585 59.266 379.091C58.6994 381.045 58.2854 383.211 58.0239 385.589C57.7624 387.925 57.6316 390.452 57.6316 393.171V405.785C57.6316 409.481 57.8277 412.794 58.22 415.724C58.6558 418.612 59.3096 421.14 60.1813 423.306C60.7914 424.792 61.5105 426.109 62.3386 427.256C63.2102 428.403 64.1909 429.358 65.2804 430.123C66.4572 430.972 67.7647 431.609 69.2029 432.034C70.6847 432.416 72.319 432.608 74.1059 432.608C76.503 432.608 78.6603 432.31 80.578 431.716C82.4956 431.121 84.13 430.187 85.4811 428.912C86.8321 427.638 87.8999 426.003 88.6844 424.007C89.4689 422.01 89.9483 419.611 90.1226 416.807H108.493Z" fill="white"/>
<path d="M114.285 410.755C114.285 405.743 115.026 401.113 116.508 396.866C117.989 392.576 120.169 388.86 123.045 385.717C125.878 382.574 129.343 380.11 133.44 378.326C137.58 376.542 142.309 375.65 147.626 375.65C152.943 375.65 157.672 376.542 161.812 378.326C165.952 380.11 169.461 382.574 172.337 385.717C175.17 388.86 177.327 392.576 178.809 396.866C180.291 401.113 181.032 405.743 181.032 410.755V412.093C181.032 417.147 180.291 421.819 178.809 426.109C177.327 430.356 175.17 434.052 172.337 437.195C169.504 440.338 166.018 442.801 161.877 444.585C157.737 446.327 153.03 447.197 147.756 447.197C142.439 447.197 137.689 446.327 133.505 444.585C129.365 442.801 125.878 440.338 123.045 437.195C120.169 434.052 117.989 430.356 116.508 426.109C115.026 421.819 114.285 417.147 114.285 412.093V410.755ZM132.459 412.093C132.459 414.981 132.742 417.699 133.309 420.248C133.875 422.754 134.769 424.941 135.989 426.81C137.209 428.721 138.778 430.229 140.696 431.333C142.657 432.438 145.011 432.99 147.756 432.99C150.415 432.99 152.703 432.438 154.621 431.333C156.538 430.229 158.107 428.721 159.328 426.81C160.504 424.941 161.376 422.754 161.943 420.248C162.509 417.699 162.793 414.981 162.793 412.093V410.755C162.793 407.952 162.509 405.297 161.943 402.791C161.376 400.285 160.504 398.076 159.328 396.165C158.107 394.254 156.538 392.746 154.621 391.642C152.703 390.537 150.371 389.985 147.626 389.985C144.924 389.985 142.614 390.537 140.696 391.642C138.778 392.746 137.209 394.254 135.989 396.165C134.769 398.076 133.875 400.285 133.309 402.791C132.742 405.297 132.459 407.952 132.459 410.755V412.093Z" fill="white"/>
<path d="M188.589 410.882C188.589 405.658 189.199 400.88 190.42 396.547C191.684 392.215 193.514 388.499 195.911 385.398C198.308 382.297 201.206 379.898 204.606 378.199C208.049 376.5 211.971 375.65 216.373 375.65C220.078 375.65 223.325 376.309 226.114 377.625C228.947 378.9 231.453 380.726 233.632 383.104V348H251.871V445.859H235.462L234.547 438.66C232.325 441.336 229.71 443.417 226.702 444.904C223.695 446.39 220.209 447.134 216.243 447.134C211.928 447.134 208.049 446.263 204.606 444.521C201.206 442.738 198.33 440.295 195.977 437.195C193.579 434.094 191.749 430.42 190.485 426.173C189.221 421.883 188.589 417.232 188.589 412.22V410.882ZM206.763 412.22C206.763 415.108 207.003 417.805 207.482 420.311C208.005 422.775 208.833 424.92 209.967 426.746C211.1 428.615 212.56 430.08 214.347 431.142C216.134 432.204 218.313 432.735 220.884 432.735C224.022 432.735 226.615 432.077 228.664 430.76C230.756 429.443 232.412 427.638 233.632 425.345V397.439C232.412 395.103 230.777 393.298 228.729 392.024C226.681 390.707 224.109 390.049 221.015 390.049C218.443 390.049 216.243 390.601 214.412 391.705C212.625 392.767 211.165 394.233 210.032 396.101C208.899 398.013 208.071 400.243 207.548 402.791C207.025 405.297 206.763 407.994 206.763 410.882V412.22Z" fill="white"/>
<path d="M269.039 376.925H307.544V431.461H326.699V445.859H269.039V431.461H289.174V391.387H269.039V376.925ZM287.866 359.277C287.866 357.918 288.106 356.665 288.586 355.518C289.109 354.329 289.828 353.309 290.743 352.46C291.658 351.653 292.748 351.016 294.012 350.548C295.319 350.081 296.757 349.848 298.326 349.848C301.551 349.848 304.101 350.74 305.975 352.523C307.893 354.265 308.852 356.516 308.852 359.277C308.852 362.038 307.893 364.31 305.975 366.094C304.101 367.835 301.551 368.706 298.326 368.706C296.757 368.706 295.319 368.472 294.012 368.005C292.748 367.538 291.658 366.88 290.743 366.03C289.828 365.223 289.109 364.246 288.586 363.099C288.106 361.91 287.866 360.636 287.866 359.277Z" fill="white"/>
<path d="M337.917 445.859V376.925H354.391L355.503 386.481C356.418 385.207 357.42 384.039 358.51 382.977C359.599 381.915 360.754 380.96 361.975 380.11C364.067 378.666 366.355 377.562 368.839 376.797C371.323 376.033 373.96 375.65 376.749 375.65C380.323 375.65 383.592 376.16 386.555 377.179C389.519 378.199 392.09 379.813 394.27 382.021C396.405 384.273 398.061 387.161 399.238 390.686C400.458 394.169 401.068 398.416 401.068 403.428V445.859H382.894V403.683C382.894 400.965 382.568 398.735 381.914 396.993C381.304 395.209 380.41 393.808 379.234 392.788C378.057 391.769 376.64 391.068 374.984 390.686C373.328 390.261 371.454 390.049 369.362 390.049C367.619 390.049 366.006 390.24 364.524 390.622C363.086 391.005 361.8 391.578 360.667 392.343C359.752 392.895 358.924 393.553 358.183 394.318C357.442 395.082 356.767 395.932 356.156 396.866V445.859H337.917Z" fill="white"/>
<path d="M409.803 410.882C409.803 405.658 410.456 400.88 411.764 396.547C413.115 392.215 415.032 388.499 417.517 385.398C420.001 382.297 423.008 379.898 426.538 378.199C430.069 376.5 434.056 375.65 438.502 375.65C440.899 375.65 443.078 375.884 445.039 376.351C447.044 376.776 448.853 377.434 450.465 378.326C451.686 378.963 452.819 379.728 453.865 380.62C454.911 381.469 455.87 382.425 456.741 383.487L457.46 376.925H474V443.629C474 448.302 473.172 452.464 471.516 456.117C469.903 459.769 467.637 462.849 464.717 465.355C461.753 467.861 458.201 469.751 454.061 471.025C449.964 472.342 445.431 473 440.463 473C438.327 473 436.039 472.788 433.599 472.363C431.158 471.938 428.739 471.28 426.342 470.388C423.945 469.496 421.679 468.349 419.543 466.948C417.408 465.588 415.577 463.953 414.052 462.042L422.224 451.275C423.4 452.591 424.664 453.738 426.015 454.715C427.366 455.734 428.783 456.563 430.265 457.2C431.703 457.837 433.185 458.304 434.71 458.601C436.279 458.941 437.892 459.111 439.548 459.111C442.206 459.111 444.56 458.75 446.608 458.028C448.7 457.306 450.443 456.244 451.838 454.843C453.102 453.568 454.061 451.997 454.715 450.128C455.412 448.259 455.761 446.157 455.761 443.821V439.871C454.889 440.805 453.974 441.654 453.015 442.419C452.056 443.183 451.032 443.863 449.942 444.458C448.33 445.307 446.543 445.966 444.582 446.433C442.664 446.9 440.594 447.134 438.371 447.134C433.969 447.134 430.003 446.263 426.473 444.521C422.986 442.738 420.001 440.295 417.517 437.195C415.032 434.094 413.115 430.42 411.764 426.173C410.456 421.883 409.803 417.232 409.803 412.22V410.882ZM428.042 412.22C428.042 415.108 428.325 417.805 428.892 420.311C429.502 422.775 430.417 424.92 431.638 426.746C432.858 428.615 434.405 430.08 436.279 431.142C438.153 432.204 440.376 432.735 442.947 432.735C444.516 432.735 445.933 432.586 447.197 432.289C448.504 431.992 449.681 431.567 450.727 431.015C451.816 430.42 452.775 429.698 453.603 428.849C454.431 427.999 455.15 427.044 455.761 425.982V396.802C455.107 395.613 454.322 394.572 453.407 393.68C452.492 392.788 451.446 392.066 450.269 391.514C449.267 391.047 448.155 390.686 446.935 390.431C445.758 390.176 444.473 390.049 443.078 390.049C440.507 390.049 438.284 390.601 436.41 391.705C434.536 392.767 432.989 394.233 431.768 396.101C430.504 398.013 429.567 400.243 428.957 402.791C428.347 405.297 428.042 407.994 428.042 410.882V412.22Z" fill="white"/>
</svg>
