<svg width="512" height="512" viewBox="0 0 512 512" fill="none" xmlns="http://www.w3.org/2000/svg">
<path fill-rule="evenodd" clip-rule="evenodd" d="M58.5213 182.521C39 202.043 39 233.462 39 296.3V318C39 332.614 39 339.92 43.5398 344.46C48.0797 349 55.3865 349 70 349H339.7C402.538 349 433.957 349 453.479 329.479C473 309.957 473 278.538 473 215.7V194C473 179.386 473 172.08 468.46 167.54C463.92 163 456.614 163 442 163H172.3C109.462 163 78.0427 163 58.5213 182.521ZM151.379 327.949C160.25 331.65 169.666 333.5 179.626 333.5C189.587 333.5 198.924 331.65 207.64 327.949C216.355 324.248 223.436 318.769 228.883 311.51C234.486 304.251 237.287 295.355 237.287 284.822V226.324C237.287 224.616 237.676 223.192 238.454 222.054C239.388 220.773 240.633 219.776 242.189 219.065C243.746 218.353 245.38 217.997 247.092 217.997C248.804 217.997 250.36 218.353 251.761 219.065C253.161 219.776 254.329 220.773 255.262 222.054C256.196 223.192 256.663 224.616 256.663 226.324V330.725H304.519V227.391C304.519 217.001 301.796 208.176 296.349 200.917C290.901 193.658 283.82 188.107 275.105 184.264C266.39 180.421 257.052 178.5 247.092 178.5C237.131 178.5 227.716 180.421 218.845 184.264C210.13 188.107 203.049 193.658 197.602 200.917C192.154 208.176 189.431 217.001 189.431 227.391V285.249C189.431 287.1 188.964 288.736 188.03 290.16C187.097 291.441 185.851 292.437 184.295 293.149C182.739 293.86 181.105 294.216 179.393 294.216C177.837 294.216 176.358 293.86 174.957 293.149C173.557 292.437 172.389 291.441 171.456 290.16C170.522 288.736 170.055 287.1 170.055 285.249V227.391C170.055 217.001 167.332 208.176 161.884 200.917C156.437 193.658 149.356 188.107 140.641 184.264C131.926 180.421 122.51 178.5 112.394 178.5C102.278 178.5 92.7849 180.421 83.914 184.264C75.0431 188.107 67.8842 193.658 62.4371 200.917C57.1457 208.176 54.5 217.001 54.5 227.391V330.725H102.59V226.964C102.59 225.114 102.979 223.548 103.757 222.267C104.691 220.844 105.858 219.776 107.258 219.065C108.815 218.353 110.527 217.997 112.394 217.997C114.262 217.997 115.896 218.353 117.297 219.065C118.697 219.776 119.787 220.844 120.565 222.267C121.499 223.548 121.965 225.114 121.965 226.964V284.822C121.965 295.355 124.689 304.251 130.136 311.51C135.583 318.769 142.664 324.248 151.379 327.949ZM327.238 294.643V330.725H404.975C414.624 330.725 423.417 328.803 431.354 324.96C439.291 321.117 445.594 315.495 450.263 308.094C455.088 300.692 457.5 291.797 457.5 281.406C457.5 272.297 455.243 264.398 450.73 257.708C446.217 251.018 439.836 245.823 431.588 242.123C423.339 238.28 413.69 236.358 402.641 236.358H379.996C377.818 236.358 375.872 235.931 374.16 235.077C372.604 234.081 371.359 232.871 370.425 231.448C369.647 230.024 369.258 228.459 369.258 226.751C369.258 225.043 369.647 223.477 370.425 222.054C371.359 220.63 372.604 219.492 374.16 218.638C375.872 217.784 377.818 217.357 379.996 217.357H447.695V181.275H373.227C363.578 181.275 354.784 183.197 346.847 187.04C338.91 190.883 332.607 196.292 327.938 203.266C323.269 210.24 320.935 218.424 320.935 227.818C320.935 237.354 323.347 245.539 328.172 252.371C333.152 259.06 339.766 264.184 348.015 267.742C356.263 271.301 365.445 273.08 375.561 273.08H396.571C399.217 273.08 401.396 273.578 403.107 274.574C404.975 275.571 406.376 276.923 407.309 278.631C408.399 280.197 408.944 281.976 408.944 283.968C408.944 285.819 408.399 287.598 407.309 289.306C406.376 290.871 404.975 292.152 403.107 293.149C401.396 294.145 399.217 294.643 396.571 294.643H327.238Z" fill="#66D9ED"/>
</svg>
