<svg width="118" height="12" viewBox="0 0 118 12" fill="none" xmlns="http://www.w3.org/2000/svg">
<path fill-rule="evenodd" clip-rule="evenodd" d="M1.25944 1.25944C0 2.51888 0 4.54592 0 8.6V10C0 10.9428 0 11.4142 0.292893 11.7071C0.585786 12 1.05719 12 2 12H19.4C23.4541 12 25.4811 12 26.7406 10.7406C28 9.48112 28 7.45408 28 3.4V2C28 1.05719 28 0.585786 27.7071 0.292893C27.4142 0 26.9428 0 26 0H8.6C4.54592 0 2.51888 0 1.25944 1.25944ZM7.25029 10.6419C7.8226 10.8806 8.43006 11 9.07266 11C9.71526 11 10.3177 10.8806 10.88 10.6419C11.4423 10.4031 11.8991 10.0496 12.2505 9.58127C12.612 9.11295 12.7927 8.53903 12.7927 7.8595V4.0854C12.7927 3.97521 12.8178 3.88338 12.868 3.80992C12.9283 3.72727 13.0086 3.66299 13.109 3.61708C13.2094 3.57117 13.3148 3.54821 13.4253 3.54821C13.5357 3.54821 13.6361 3.57117 13.7265 3.61708C13.8169 3.66299 13.8922 3.72727 13.9524 3.80992C14.0127 3.88338 14.0428 3.97521 14.0428 4.0854V10.8209H17.1303V4.15427C17.1303 3.48393 16.9546 2.9146 16.6031 2.44628C16.2517 1.97796 15.7949 1.61983 15.2326 1.3719C14.6703 1.12397 14.0679 1 13.4253 1C12.7827 1 12.1752 1.12397 11.6029 1.3719C11.0406 1.61983 10.5838 1.97796 10.2324 2.44628C9.88093 2.9146 9.70522 3.48393 9.70522 4.15427V7.88705C9.70522 8.00643 9.6751 8.11203 9.61486 8.20386C9.55461 8.2865 9.47429 8.35078 9.37388 8.39669C9.27347 8.44261 9.16805 8.46556 9.0576 8.46556C8.9572 8.46556 8.86181 8.44261 8.77144 8.39669C8.68108 8.35078 8.60577 8.2865 8.54553 8.20386C8.48529 8.11203 8.45516 8.00643 8.45516 7.88705V4.15427C8.45516 3.48393 8.27945 2.9146 7.92803 2.44628C7.57661 1.97796 7.11976 1.61983 6.55749 1.3719C5.99521 1.12397 5.38775 1 4.73511 1C4.08247 1 3.46999 1.12397 2.89768 1.3719C2.32536 1.61983 1.86349 1.97796 1.51207 2.44628C1.17069 2.9146 1 3.48393 1 4.15427V10.8209H4.10255V4.12672C4.10255 4.00735 4.12765 3.90634 4.17786 3.82369C4.2381 3.73186 4.31341 3.66299 4.40377 3.61708C4.50418 3.57117 4.61462 3.54821 4.73511 3.54821C4.8556 3.54821 4.96103 3.57117 5.05139 3.61708C5.14176 3.66299 5.21204 3.73186 5.26225 3.82369C5.32249 3.90634 5.35261 4.00735 5.35261 4.12672V7.8595C5.35261 8.53903 5.52832 9.11295 5.87974 9.58127C6.23117 10.0496 6.68801 10.4031 7.25029 10.6419ZM18.596 8.49311V10.8209H23.6113C24.2338 10.8209 24.8011 10.697 25.3132 10.449C25.8252 10.2011 26.2319 9.83838 26.5331 9.36088C26.8444 8.88338 27 8.30946 27 7.63912C27 7.05142 26.8544 6.54178 26.5632 6.11019C26.2721 5.6786 25.8604 5.34343 25.3282 5.10468C24.7961 4.85675 24.1736 4.73278 23.4607 4.73278H21.9998C21.8592 4.73278 21.7337 4.70523 21.6232 4.65014C21.5228 4.58586 21.4425 4.50781 21.3823 4.41598C21.3321 4.32415 21.307 4.22314 21.307 4.11295C21.307 4.00276 21.3321 3.90175 21.3823 3.80992C21.4425 3.71809 21.5228 3.64463 21.6232 3.58953C21.7337 3.53444 21.8592 3.50689 21.9998 3.50689H26.3674V1.17906H21.563C20.9405 1.17906 20.3732 1.30303 19.8611 1.55096C19.349 1.7989 18.9424 2.14784 18.6412 2.5978C18.34 3.04775 18.1894 3.57576 18.1894 4.18182C18.1894 4.79706 18.345 5.32507 18.6562 5.76584C18.9775 6.19743 19.4043 6.52801 19.9364 6.75758C20.4686 6.98714 21.061 7.10193 21.7136 7.10193H23.0691C23.2398 7.10193 23.3804 7.13407 23.4908 7.19835C23.6113 7.26263 23.7017 7.34986 23.7619 7.46005C23.8322 7.56106 23.8673 7.67585 23.8673 7.80441C23.8673 7.92378 23.8322 8.03857 23.7619 8.14876C23.7017 8.24977 23.6113 8.33241 23.4908 8.39669C23.3804 8.46097 23.2398 8.49311 23.0691 8.49311H18.596Z" fill="#66D9ED"/>
<path d="M36.0375 0.489297L36.8431 3.83486L37.7597 0.489297H39.7972V9.3945H38.291V6.75841L38.361 2.59327L37.246 6.45872H36.4345L35.4362 2.75841L35.5062 6.75841V9.3945H34V0.489297H36.0375Z" fill="white"/>
<path d="M43.7297 9.51682C43.2432 9.51682 42.8015 9.43323 42.4045 9.26606C42.0075 9.09888 41.6669 8.87054 41.3828 8.58104C41.0987 8.29562 40.8788 7.95923 40.7231 7.57187C40.5713 7.18043 40.4954 6.76249 40.4954 6.31804V6.0734C40.4954 5.56779 40.5713 5.10703 40.7231 4.69113C40.8749 4.27115 41.087 3.9103 41.3595 3.60856C41.6319 3.30683 41.9549 3.07238 42.3286 2.9052C42.7022 2.73802 43.1089 2.65443 43.5487 2.65443C44.0041 2.65443 44.4089 2.73395 44.763 2.89297C45.1211 3.04791 45.4247 3.26809 45.6738 3.55352C45.919 3.83894 46.1058 4.18349 46.2342 4.58716C46.3627 4.98675 46.4269 5.42915 46.4269 5.91437V6.63609H42.1418V6.65444C42.1962 6.91947 42.2663 7.13354 42.3519 7.29664C42.4375 7.45566 42.5524 7.60041 42.6964 7.73089C42.8443 7.86544 43.0136 7.96942 43.2043 8.04281C43.395 8.11621 43.6032 8.15291 43.8289 8.15291C44.1481 8.15291 44.4575 8.08971 44.7572 7.9633C45.0569 7.8369 45.3001 7.6473 45.487 7.3945L46.2984 8.31193C46.0922 8.61774 45.7652 8.89501 45.3177 9.14373C44.8701 9.39246 44.3408 9.51682 43.7297 9.51682ZM43.537 4.03058C43.3541 4.03058 43.1868 4.06524 43.035 4.13456C42.8832 4.1998 42.7509 4.29562 42.638 4.42202C42.5212 4.54842 42.4239 4.69929 42.3461 4.87462C42.2682 5.04995 42.2099 5.24567 42.1709 5.46177H44.8331V5.32722C44.8331 5.14781 44.802 4.97859 44.7397 4.81957C44.6774 4.66055 44.5918 4.52192 44.4828 4.40367C44.3738 4.2895 44.2396 4.1998 44.08 4.13456C43.9243 4.06524 43.7433 4.03058 43.537 4.03058Z" fill="white"/>
<path d="M50.3127 9.51682C49.8262 9.51682 49.3844 9.43323 48.9875 9.26606C48.5905 9.09888 48.2499 8.87054 47.9658 8.58104C47.6817 8.29562 47.4618 7.95923 47.3061 7.57187C47.1543 7.18043 47.0784 6.76249 47.0784 6.31804V6.0734C47.0784 5.56779 47.1543 5.10703 47.3061 4.69113C47.4579 4.27115 47.67 3.9103 47.9424 3.60856C48.2149 3.30683 48.5379 3.07238 48.9116 2.9052C49.2852 2.73802 49.6919 2.65443 50.1317 2.65443C50.5871 2.65443 50.9919 2.73395 51.346 2.89297C51.7041 3.04791 52.0077 3.26809 52.2568 3.55352C52.502 3.83894 52.6888 4.18349 52.8172 4.58716C52.9457 4.98675 53.0099 5.42915 53.0099 5.91437V6.63609H48.7247V6.65444C48.7792 6.91947 48.8493 7.13354 48.9349 7.29664C49.0205 7.45566 49.1354 7.60041 49.2794 7.73089C49.4273 7.86544 49.5966 7.96942 49.7873 8.04281C49.978 8.11621 50.1862 8.15291 50.4119 8.15291C50.7311 8.15291 51.0405 8.08971 51.3402 7.9633C51.6399 7.8369 51.8831 7.6473 52.0699 7.3945L52.8814 8.31193C52.6752 8.61774 52.3482 8.89501 51.9006 9.14373C51.4531 9.39246 50.9237 9.51682 50.3127 9.51682ZM50.12 4.03058C49.9371 4.03058 49.7698 4.06524 49.618 4.13456C49.4662 4.1998 49.3338 4.29562 49.221 4.42202C49.1042 4.54842 49.0069 4.69929 48.9291 4.87462C48.8512 5.04995 48.7929 5.24567 48.7539 5.46177H51.4161V5.32722C51.4161 5.14781 51.3849 4.97859 51.3227 4.81957C51.2604 4.66055 51.1748 4.52192 51.0658 4.40367C50.9568 4.2895 50.8225 4.1998 50.663 4.13456C50.5073 4.06524 50.3263 4.03058 50.12 4.03058Z" fill="white"/>
<path d="M56.8081 1.15596V2.77676H59.1667V4.03058H56.8081V6.87462C56.8081 7.11519 56.8334 7.31702 56.884 7.48012C56.9385 7.63914 57.0144 7.76555 57.1117 7.85933C57.209 7.95719 57.3258 8.0265 57.462 8.06728C57.6021 8.10805 57.7578 8.12844 57.929 8.12844C58.0536 8.12844 58.1801 8.12232 58.3085 8.11009C58.4408 8.09786 58.5673 8.08155 58.688 8.06116C58.8047 8.04485 58.9137 8.0265 59.0149 8.00612C59.12 7.98573 59.2095 7.96534 59.2834 7.94495L59.4411 9.11315C59.3282 9.18247 59.1959 9.24363 59.0441 9.29664C58.8923 9.34557 58.7308 9.38634 58.5595 9.41896C58.3883 9.45158 58.2092 9.47605 58.0224 9.49236C57.8395 9.51274 57.6585 9.52294 57.4795 9.52294C57.1331 9.52294 56.8178 9.47605 56.5337 9.38226C56.2535 9.2844 56.0141 9.13354 55.8156 8.92966C55.6133 8.72987 55.4576 8.47503 55.3486 8.16514C55.2396 7.85117 55.1851 7.47605 55.1851 7.03976V4.03058H53.7431V2.77676H55.1851V1.15596H56.8081Z" fill="white"/>
<path d="M68.9326 7.07034C68.9326 6.91132 68.9053 6.76249 68.8509 6.62385C68.8003 6.48522 68.7127 6.35474 68.5881 6.23242C68.4597 6.11417 68.2923 6.00612 68.0861 5.90826C67.8837 5.80632 67.6307 5.71254 67.3271 5.62691C66.8562 5.49236 66.4417 5.32926 66.0836 5.13761C65.7294 4.94597 65.4395 4.73598 65.2137 4.50765C64.988 4.27931 64.8168 4.0265 64.7 3.74924C64.5871 3.47197 64.5307 3.17023 64.5307 2.84404C64.5307 2.46891 64.6066 2.12844 64.7584 1.82263C64.9102 1.51682 65.1203 1.25586 65.3889 1.03976C65.6574 0.823649 65.9746 0.658512 66.3405 0.544343C66.7063 0.426096 67.1033 0.366972 67.5315 0.366972C67.9751 0.366972 68.3799 0.434251 68.7458 0.568807C69.1155 0.703364 69.4327 0.890928 69.6974 1.1315C69.962 1.37615 70.1683 1.66565 70.3162 2C70.4641 2.33435 70.5381 2.70133 70.5381 3.10092H68.9384C68.9306 2.90112 68.8956 2.71764 68.8333 2.55046C68.775 2.38328 68.6874 2.23853 68.5706 2.11621C68.45 1.99796 68.3001 1.90622 68.1211 1.84098C67.946 1.77166 67.7397 1.737 67.5023 1.737C67.2843 1.737 67.0897 1.76555 66.9185 1.82263C66.7511 1.87564 66.609 1.95107 66.4923 2.04893C66.3755 2.15087 66.286 2.27115 66.2237 2.40979C66.1653 2.54434 66.1362 2.69113 66.1362 2.85015C66.1362 3.01733 66.1751 3.1682 66.2529 3.30275C66.3347 3.43731 66.4514 3.55759 66.6032 3.66361C66.755 3.7737 66.9379 3.8736 67.152 3.9633C67.3699 4.05301 67.6151 4.1366 67.8876 4.21407C68.1795 4.29969 68.4578 4.40367 68.7224 4.52599C68.9871 4.64832 69.2303 4.78899 69.4522 4.94801C69.7869 5.20897 70.0535 5.51274 70.252 5.85933C70.4505 6.20591 70.5497 6.60551 70.5497 7.0581C70.5497 7.44954 70.4738 7.79817 70.322 8.10398C70.1741 8.40571 69.9679 8.66055 69.7032 8.8685C69.4386 9.08053 69.1233 9.24159 68.7574 9.35168C68.3916 9.4577 67.9927 9.5107 67.5606 9.5107C67.1364 9.5107 66.7161 9.44546 66.2996 9.31499C65.8871 9.18043 65.5271 8.98471 65.2196 8.72783C64.9277 8.47503 64.6961 8.17737 64.5249 7.83486C64.3575 7.49236 64.2738 7.09072 64.2738 6.62997H65.8851C65.8929 6.89908 65.9377 7.12946 66.0194 7.3211C66.1011 7.51274 66.2159 7.66973 66.3638 7.79205C66.5078 7.91437 66.681 8.00408 66.8834 8.06116C67.0897 8.11825 67.3154 8.14679 67.5606 8.14679C67.7786 8.14679 67.9713 8.12029 68.1386 8.06728C68.3099 8.01427 68.4539 7.94088 68.5706 7.8471C68.6874 7.75331 68.7769 7.64118 68.8392 7.5107C68.9015 7.37615 68.9326 7.22936 68.9326 7.07034Z" fill="white"/>
<path d="M72.8009 8.40979C72.8009 8.09582 72.9001 7.83079 73.0986 7.61468C73.2971 7.3945 73.5734 7.2844 73.9276 7.2844C74.2779 7.2844 74.5523 7.39246 74.7508 7.60856C74.9532 7.82467 75.0544 8.09174 75.0544 8.40979C75.0544 8.72783 74.9512 8.99286 74.745 9.20489C74.5426 9.41284 74.2701 9.51682 73.9276 9.51682C73.5812 9.51682 73.3068 9.41081 73.1045 9.19878C72.9021 8.98675 72.8009 8.72375 72.8009 8.40979Z" fill="white"/>
<path d="M85.3594 6.60551C85.3322 7.05403 85.2388 7.4577 85.0792 7.81651C84.9235 8.17533 84.7134 8.48114 84.4487 8.73395C84.184 8.98675 83.8688 9.18247 83.5029 9.3211C83.1371 9.45566 82.7323 9.52294 82.2886 9.52294C81.9383 9.52294 81.6134 9.47605 81.3137 9.38226C81.0179 9.2844 80.7513 9.14577 80.5138 8.96636C80.2959 8.79918 80.1013 8.59735 79.93 8.36086C79.7627 8.12436 79.6206 7.86341 79.5039 7.57798C79.391 7.29256 79.3034 6.97859 79.2412 6.63609C79.1828 6.29358 79.1536 5.93068 79.1536 5.5474V4.34862C79.1536 3.98981 79.1808 3.64934 79.2353 3.32722C79.2898 3.00102 79.3715 2.69929 79.4805 2.42202C79.6051 2.08359 79.7685 1.78186 79.9709 1.51682C80.1733 1.25178 80.4029 1.02752 80.6598 0.844037C80.8894 0.689093 81.1405 0.570846 81.4129 0.489297C81.6892 0.40367 81.985 0.360856 82.3003 0.360856C82.7673 0.360856 83.1818 0.430173 83.5438 0.568807C83.9097 0.707441 84.221 0.905199 84.4779 1.16208C84.7348 1.41896 84.9371 1.73293 85.085 2.10398C85.2329 2.47503 85.3264 2.89297 85.3653 3.3578H83.7306C83.715 3.09276 83.6761 2.86035 83.6139 2.66055C83.5555 2.46075 83.4699 2.29358 83.357 2.15902C83.2402 2.02854 83.0943 1.93068 82.9191 1.86544C82.7479 1.79613 82.5416 1.76147 82.3003 1.76147C82.1719 1.76147 82.0512 1.77574 81.9383 1.80428C81.8294 1.83282 81.7282 1.87564 81.6348 1.93272C81.4752 2.03058 81.339 2.17125 81.2261 2.35474C81.1171 2.53415 81.0295 2.74414 80.9634 2.98471C80.9128 3.17227 80.8758 3.38022 80.8525 3.60856C80.8291 3.83282 80.8174 4.07543 80.8174 4.33639V5.5474C80.8174 5.90214 80.8349 6.22018 80.87 6.50153C80.9089 6.7788 80.9673 7.02141 81.0451 7.22936C81.0996 7.37207 81.1638 7.49847 81.2378 7.60856C81.3156 7.71866 81.4032 7.8104 81.5005 7.88379C81.6056 7.96534 81.7223 8.0265 81.8508 8.06728C81.9831 8.10398 82.129 8.12232 82.2886 8.12232C82.5027 8.12232 82.6953 8.09378 82.8666 8.0367C83.0378 7.97961 83.1838 7.88991 83.3044 7.76758C83.4251 7.64526 83.5204 7.48828 83.5905 7.29664C83.6606 7.105 83.7034 6.87462 83.7189 6.60551H85.3594Z" fill="white"/>
<path d="M85.8767 6.02447C85.8767 5.54332 85.9428 5.09888 86.0752 4.69113C86.2075 4.27931 86.4021 3.92253 86.659 3.6208C86.912 3.31906 87.2214 3.08257 87.5872 2.91132C87.957 2.74006 88.3793 2.65443 88.8541 2.65443C89.3289 2.65443 89.7512 2.74006 90.1209 2.91132C90.4907 3.08257 90.804 3.31906 91.0609 3.6208C91.3139 3.92253 91.5065 4.27931 91.6388 4.69113C91.7712 5.09888 91.8373 5.54332 91.8373 6.02447V6.15291C91.8373 6.63813 91.7712 7.08665 91.6388 7.49847C91.5065 7.90622 91.3139 8.26096 91.0609 8.56269C90.8079 8.86442 90.4965 9.10092 90.1268 9.27217C89.757 9.43935 89.3367 9.52294 88.8658 9.52294C88.3909 9.52294 87.9667 9.43935 87.5931 9.27217C87.2233 9.10092 86.912 8.86442 86.659 8.56269C86.4021 8.26096 86.2075 7.90622 86.0752 7.49847C85.9428 7.08665 85.8767 6.63813 85.8767 6.15291V6.02447ZM87.4997 6.15291C87.4997 6.43017 87.525 6.69113 87.5756 6.93578C87.6262 7.17635 87.7059 7.38634 87.8149 7.56575C87.9239 7.74924 88.064 7.89399 88.2353 8C88.4104 8.10601 88.6206 8.15902 88.8658 8.15902C89.1032 8.15902 89.3075 8.10601 89.4788 8C89.65 7.89399 89.7901 7.74924 89.8991 7.56575C90.0042 7.38634 90.082 7.17635 90.1326 6.93578C90.1832 6.69113 90.2085 6.43017 90.2085 6.15291V6.02447C90.2085 5.75535 90.1832 5.50051 90.1326 5.25994C90.082 5.01937 90.0042 4.80734 89.8991 4.62385C89.7901 4.44037 89.65 4.29562 89.4788 4.1896C89.3075 4.08359 89.0993 4.03058 88.8541 4.03058C88.6128 4.03058 88.4065 4.08359 88.2353 4.1896C88.064 4.29562 87.9239 4.44037 87.8149 4.62385C87.7059 4.80734 87.6262 5.01937 87.5756 5.25994C87.525 5.50051 87.4997 5.75535 87.4997 6.02447V6.15291Z" fill="white"/>
<path d="M92.5122 6.0367C92.5122 5.53517 92.5667 5.07645 92.6757 4.66055C92.7886 4.24465 92.952 3.88787 93.1661 3.59021C93.3801 3.29256 93.639 3.06218 93.9425 2.89908C94.25 2.73598 94.6003 2.65443 94.9934 2.65443C95.3242 2.65443 95.6142 2.71764 95.8633 2.84404C96.1162 2.96636 96.34 3.14169 96.5346 3.37003V0H98.1635V9.3945H96.6981L96.6164 8.70336C96.4179 8.96025 96.1844 9.16004 95.9158 9.30275C95.6473 9.44546 95.3359 9.51682 94.9817 9.51682C94.5964 9.51682 94.25 9.43323 93.9425 9.26606C93.639 9.0948 93.3821 8.86035 93.1719 8.56269C92.9579 8.26504 92.7944 7.91233 92.6815 7.50459C92.5687 7.09276 92.5122 6.64628 92.5122 6.16514V6.0367ZM94.1352 6.16514C94.1352 6.44241 94.1566 6.70133 94.1994 6.9419C94.2461 7.17839 94.3201 7.3843 94.4213 7.55963C94.5225 7.73904 94.6528 7.87971 94.8124 7.98165C94.972 8.08359 95.1666 8.13456 95.3962 8.13456C95.6764 8.13456 95.908 8.07136 96.0909 7.94495C96.2778 7.81855 96.4257 7.64526 96.5346 7.42508V4.74618C96.4257 4.52192 96.2797 4.34862 96.0968 4.2263C95.9139 4.0999 95.6842 4.0367 95.4079 4.0367C95.1783 4.0367 94.9817 4.0897 94.8182 4.19572C94.6587 4.29766 94.5283 4.43833 94.4271 4.61774C94.3259 4.80122 94.252 5.01529 94.2053 5.25994C94.1585 5.50051 94.1352 5.75943 94.1352 6.0367V6.16514Z" fill="white"/>
<path d="M99.6965 2.77676H103.135V8.01223H104.846V9.3945H99.6965V8.01223H101.495V4.16514H99.6965V2.77676ZM101.378 1.08257C101.378 0.95209 101.399 0.831804 101.442 0.721713C101.489 0.607543 101.553 0.509684 101.635 0.428135C101.716 0.350663 101.814 0.289501 101.927 0.244648C102.043 0.199796 102.172 0.17737 102.312 0.17737C102.6 0.17737 102.828 0.262997 102.995 0.434251C103.166 0.601427 103.252 0.817533 103.252 1.08257C103.252 1.3476 103.166 1.56575 102.995 1.737C102.828 1.90418 102.6 1.98777 102.312 1.98777C102.172 1.98777 102.043 1.96534 101.927 1.92049C101.814 1.87564 101.716 1.81244 101.635 1.73089C101.553 1.65342 101.489 1.55963 101.442 1.44954C101.399 1.33537 101.378 1.21305 101.378 1.08257Z" fill="white"/>
<path d="M105.848 9.3945V2.77676H107.319L107.418 3.69419C107.5 3.57187 107.589 3.45974 107.686 3.3578C107.784 3.25586 107.887 3.16412 107.996 3.08257C108.183 2.94394 108.387 2.83792 108.609 2.76453C108.831 2.69113 109.066 2.65443 109.315 2.65443C109.634 2.65443 109.926 2.70336 110.191 2.80122C110.456 2.89908 110.685 3.05403 110.88 3.26606C111.071 3.48216 111.219 3.75943 111.324 4.09786C111.433 4.43221 111.487 4.83996 111.487 5.3211V9.3945H109.864V5.34557C109.864 5.08461 109.835 4.87054 109.777 4.70336C109.722 4.53211 109.642 4.39755 109.537 4.29969C109.432 4.20184 109.306 4.13456 109.158 4.09786C109.01 4.05709 108.842 4.0367 108.656 4.0367C108.5 4.0367 108.356 4.05505 108.224 4.09174C108.095 4.12844 107.98 4.18349 107.879 4.25688C107.797 4.30989 107.723 4.37309 107.657 4.44648C107.591 4.51988 107.531 4.60143 107.476 4.69113V9.3945H105.848Z" fill="white"/>
<path d="M112.267 6.0367C112.267 5.53517 112.325 5.07645 112.442 4.66055C112.563 4.24465 112.734 3.88787 112.956 3.59021C113.178 3.29256 113.446 3.06218 113.762 2.89908C114.077 2.73598 114.433 2.65443 114.83 2.65443C115.044 2.65443 115.239 2.67686 115.414 2.72171C115.593 2.76249 115.754 2.82569 115.898 2.91132C116.007 2.97248 116.108 3.04587 116.202 3.1315C116.295 3.21305 116.381 3.30479 116.459 3.40673L116.523 2.77676H118V9.18043C118 9.62895 117.926 10.0285 117.778 10.3792C117.634 10.7299 117.432 11.0255 117.171 11.2661C116.906 11.5066 116.589 11.6881 116.219 11.8104C115.854 11.9368 115.449 12 115.005 12C114.814 12 114.61 11.9796 114.392 11.9388C114.174 11.8981 113.958 11.8349 113.744 11.7492C113.53 11.6636 113.328 11.5535 113.137 11.419C112.946 11.2885 112.783 11.1315 112.646 10.948L113.376 9.91437C113.481 10.0408 113.594 10.1509 113.715 10.2446C113.836 10.3425 113.962 10.422 114.094 10.4832C114.223 10.5443 114.355 10.5892 114.491 10.6177C114.631 10.6504 114.775 10.6667 114.923 10.6667C115.161 10.6667 115.371 10.632 115.554 10.5627C115.741 10.4934 115.896 10.3914 116.021 10.2569C116.134 10.1346 116.219 9.98369 116.278 9.80428C116.34 9.62487 116.371 9.42304 116.371 9.19878V8.81957C116.293 8.90928 116.212 8.99083 116.126 9.06422C116.04 9.13761 115.949 9.20285 115.852 9.25994C115.708 9.34149 115.548 9.40469 115.373 9.44954C115.202 9.49439 115.017 9.51682 114.818 9.51682C114.425 9.51682 114.071 9.43323 113.756 9.26606C113.444 9.0948 113.178 8.86035 112.956 8.56269C112.734 8.26504 112.563 7.91233 112.442 7.50459C112.325 7.09276 112.267 6.64628 112.267 6.16514V6.0367ZM113.896 6.16514C113.896 6.44241 113.921 6.70133 113.972 6.9419C114.026 7.17839 114.108 7.3843 114.217 7.55963C114.326 7.73904 114.464 7.87971 114.631 7.98165C114.799 8.08359 114.997 8.13456 115.227 8.13456C115.367 8.13456 115.494 8.12029 115.606 8.09174C115.723 8.0632 115.828 8.02243 115.922 7.96942C116.019 7.91233 116.105 7.84302 116.179 7.76147C116.252 7.67992 116.317 7.58818 116.371 7.48624V4.68502C116.313 4.57085 116.243 4.47095 116.161 4.38532C116.079 4.29969 115.986 4.23038 115.881 4.17737C115.791 4.13252 115.692 4.09786 115.583 4.07339C115.478 4.04893 115.363 4.0367 115.239 4.0367C115.009 4.0367 114.81 4.0897 114.643 4.19572C114.476 4.29766 114.338 4.43833 114.229 4.61774C114.116 4.80122 114.032 5.01529 113.978 5.25994C113.923 5.50051 113.896 5.75943 113.896 6.0367V6.16514Z" fill="white"/>
</svg>
